<?xml version="1.0" standalone="no"?>
<!DOCTYPE svg PUBLIC "-//W3C//DTD SVG 20010904//EN"
 "http://www.w3.org/TR/2001/REC-SVG-20010904/DTD/svg10.dtd">
<svg version="1.0" xmlns="http://www.w3.org/2000/svg"
 width="200.000000pt" height="200.000000pt" viewBox="0 0 200.000000 200.000000"
 preserveAspectRatio="xMidYMid meet">

<g transform="translate(0.000000,200.000000) scale(0.100000,-0.100000)"
fill="#000000" stroke="none">
<path d="M0 1000 l0 -1000 294 0 293 0 16 58 c8 31 19 73 22 92 7 36 31 70 48
70 6 0 7 -18 4 -42 -4 -34 -3 -39 5 -24 6 11 11 47 10 80 0 47 2 56 9 38 5
-13 7 -28 3 -33 -3 -5 -1 -9 4 -9 5 0 14 -11 20 -24 11 -25 11 -25 51 -8 41
17 49 34 32 61 -7 10 -4 19 7 27 33 24 110 -22 127 -76 13 -41 -63 -74 -98
-43 -11 10 -17 12 -13 5 17 -28 -132 -119 -149 -91 -13 19 -20 7 -21 -32 -1
-29 2 -37 9 -30 15 15 27 14 27 -4 0 -8 8 -15 18 -15 15 0 18 6 14 30 -4 31 9
39 37 21 9 -6 10 -11 2 -15 -6 -4 -11 -14 -11 -22 0 -10 13 -14 48 -14 46 1
48 2 85 55 20 29 37 61 37 70 0 9 18 33 41 55 23 21 38 43 35 49 -4 5 -40 32
-81 60 -54 36 -80 48 -97 43 -12 -3 -17 -7 -11 -9 13 -5 6 -33 -8 -33 -5 0
-18 9 -28 19 -19 19 -19 19 1 24 26 7 14 27 -16 27 -44 0 -95 -30 -122 -70
-15 -22 -31 -40 -35 -40 -13 0 -12 3 15 57 28 57 51 135 65 222 6 34 20 82 31
106 l20 42 -69 123 c-61 108 -91 185 -91 236 0 9 -7 14 -18 12 -42 -7 -52 18
-53 131 0 58 -4 131 -9 161 -4 30 -4 59 1 64 13 14 17 6 23 -43 5 -44 25 -70
37 -49 13 21 21 178 10 192 -8 9 -6 26 7 62 25 70 30 77 58 70 31 -8 154 4
151 14 -1 5 1 8 6 9 4 1 8 -2 8 -6 3 -16 61 -32 139 -39 111 -9 159 -35 176
-91 15 -55 3 -72 -56 -80 -63 -8 -77 -17 -103 -71 -40 -79 -61 -170 -60 -257
1 -85 -12 -115 -49 -115 -31 0 -20 -15 28 -39 25 -13 43 -28 41 -34 -6 -18
-115 -11 -160 9 -20 10 -40 14 -44 10 -11 -11 8 -21 85 -47 39 -13 72 -27 72
-32 0 -4 4 -5 10 -2 5 3 10 1 10 -4 0 -6 -4 -11 -10 -11 -5 0 -10 -9 -10 -20
0 -11 4 -20 8 -20 4 0 28 -20 54 -43 37 -35 44 -47 36 -61 -6 -10 -11 -25 -12
-34 -3 -22 -56 -39 -117 -38 -27 1 -49 0 -49 -2 0 -12 97 -41 153 -47 44 -5
70 -13 76 -23 5 -9 15 -13 25 -9 28 11 -34 -62 -68 -80 -31 -16 -63 -43 -50
-43 10 0 295 165 376 217 51 34 70 53 82 83 9 22 16 48 16 57 0 26 17 3 28
-38 8 -30 6 -39 -13 -61 -13 -15 -26 -24 -29 -21 -9 10 -7 -6 4 -27 7 -13 7
-21 -2 -26 -7 -5 -8 -3 -3 6 5 8 4 11 -3 6 -6 -4 -9 -12 -6 -19 2 -7 -22 -44
-54 -82 -78 -93 -160 -206 -211 -288 -39 -64 -121 -221 -121 -232 0 -3 227 -5
505 -5 l505 0 0 1000 0 1000 -1000 0 -1000 0 0 -1000z m1094 281 c-9 -10 -26
18 -18 30 5 9 9 8 14 -7 4 -10 6 -21 4 -23z m26 -31 c0 -5 -4 -10 -9 -10 -6 0
-13 5 -16 10 -3 6 1 10 9 10 9 0 16 -4 16 -10z m22 -48 c8 -8 8 -15 -1 -26
-15 -18 -5 -56 15 -56 17 0 18 -32 2 -63 -6 -12 -14 -29 -18 -37 -4 -8 -21
-16 -38 -18 -28 -3 -31 0 -49 48 -25 66 -18 123 14 128 12 2 25 12 28 22 6 20
28 21 47 2z"/>
<path d="M678 1464 c-8 -7 29 -44 44 -44 6 0 21 -8 34 -19 l23 -18 -61 -15
c-50 -13 -58 -13 -43 -2 18 14 18 14 -2 14 -20 0 -33 -17 -33 -46 0 -20 46
-18 54 2 5 14 9 13 26 -8 15 -19 29 -25 63 -25 l44 -1 -2 39 c-2 28 1 39 11
39 33 0 10 30 -42 54 -64 30 -106 41 -116 30z"/>
<path d="M511 1324 c0 -11 3 -14 6 -6 3 7 2 16 -1 19 -3 4 -6 -2 -5 -13z"/>
<path d="M750 610 c-32 -78 31 -257 85 -237 12 5 12 12 -4 49 -11 24 -27 79
-36 123 -10 44 -21 84 -25 88 -4 4 -13 -6 -20 -23z"/>
</g>
</svg>
